HIERARCHY
ROOT Hips
{
	OFFSET 0.717293 88.513641 3.606412
	CHANNELS 6 Xposition Yposition Zposition Zrotation Yrotation Xrotation 
	JOINT Spine
	{
		OFFSET -0.000000 8.814246 -2.080107
		CHANNELS 3 Zrotation Yrotation Xrotation
		JOINT Spine1
		{
			OFFSET -0.000000 8.844141 -0.000000
			CHANNELS 3 Zrotation Yrotation Xrotation
			JOINT Spine2
			{
				OFFSET 0.000000 11.682268 0.000000
				CHANNELS 3 Zrotation Yrotation Xrotation
				JOINT Spine3
				{
					OFFSET 0.000000 11.746700 -0.000000
					CHANNELS 3 Zrotation Yrotation Xrotation
					JOINT Neck
					{
						OFFSET 0.000000 17.658264 0.000000
						CHANNELS 3 Zrotation Yrotation Xrotation
						JOINT Neck1
						{
							OFFSET -0.000000 5.101515 -0.000000
							CHANNELS 3 Zrotation Yrotation Xrotation
							JOINT Head
							{
								OFFSET -0.000000 5.101515 -0.000000
								CHANNELS 3 Zrotation Yrotation Xrotation
								JOINT HeadEnd
								{
									OFFSET -0.000000 11.655085 -0.000000
									CHANNELS 3 Zrotation Yrotation Xrotation
									End Site
									{
										OFFSET 0.000000 0.000000 0.000000
									}
								}
							}
						}
					}
					JOINT RightShoulder
					{
						OFFSET -2.625389 11.175210 -0.000000
						CHANNELS 3 Zrotation Yrotation Xrotation
						JOINT RightArm
						{
							OFFSET 0.000000 10.434715 0.000000
							CHANNELS 3 Zrotation Yrotation Xrotation
							JOINT RightForeArm
							{
								OFFSET 0.000000 29.628420 0.000000
								CHANNELS 3 Zrotation Yrotation Xrotation
								JOINT RightHand
								{
									OFFSET 0.000000 22.857611 -0.000000
									CHANNELS 3 Zrotation Yrotation Xrotation
									JOINT RightHandThumb1
									{
										OFFSET -2.867323 3.959563 2.944291
										CHANNELS 3 Zrotation Yrotation Xrotation
										JOINT RightHandThumb2
										{
											OFFSET 0.000000 3.350399 -0.000000
											CHANNELS 3 Zrotation Yrotation Xrotation
											JOINT RightHandThumb3
											{
												OFFSET 0.000000 3.756509 -0.000000
												CHANNELS 3 Zrotation Yrotation Xrotation
												JOINT RightHandThumb4
												{
													OFFSET -0.000000 3.147345 -0.000000
													CHANNELS 3 Zrotation Yrotation Xrotation
													End Site
													{
														OFFSET 0.000000 0.000000 0.000000
													}
												}
											}
										}
									}
									JOINT RightHandIndex1
									{
										OFFSET -0.086752 10.030893 2.345280
										CHANNELS 3 Zrotation Yrotation Xrotation
										JOINT RightHandIndex2
										{
											OFFSET -0.000000 4.061090 -0.000000
											CHANNELS 3 Zrotation Yrotation Xrotation
											JOINT RightHandIndex3
											{
												OFFSET -0.000000 3.248873 0.000000
												CHANNELS 3 Zrotation Yrotation Xrotation
												JOINT RightHandIndex4
												{
													OFFSET -0.000000 2.639709 0.000000
													CHANNELS 3 Zrotation Yrotation Xrotation
													End Site
													{
														OFFSET 0.000000 0.000000 0.000000
													}
												}
											}
										}
									}
									JOINT RightHandMiddle1
									{
										OFFSET 0.104102 9.502952 0.006768
										CHANNELS 3 Zrotation Yrotation Xrotation
										JOINT RightHandMiddle2
										{
											OFFSET 0.000000 4.568727 -0.000000
											CHANNELS 3 Zrotation Yrotation Xrotation
											JOINT RightHandMiddle3
											{
												OFFSET 0.000000 3.654981 -0.000000
												CHANNELS 3 Zrotation Yrotation Xrotation
												JOINT RightHandMiddle4
												{
													OFFSET 0.000000 2.741236 0.000000
													CHANNELS 3 Zrotation Yrotation Xrotation
													End Site
													{
														OFFSET 0.000000 0.000000 0.000000
													}
												}
											}
										}
									}
									JOINT RightHandRing1
									{
										OFFSET 0.086752 8.921708 -2.267442
										CHANNELS 3 Zrotation Yrotation Xrotation
										JOINT RightHandRing2
										{
											OFFSET -0.000000 4.061090 -0.000000
											CHANNELS 3 Zrotation Yrotation Xrotation
											JOINT RightHandRing3
											{
												OFFSET -0.000000 3.654981 0.000000
												CHANNELS 3 Zrotation Yrotation Xrotation
												JOINT RightHandRing4
												{
													OFFSET -0.000000 2.741236 0.000000
													CHANNELS 3 Zrotation Yrotation Xrotation
													End Site
													{
														OFFSET 0.000000 0.000000 0.000000
													}
												}
											}
										}
									}
									JOINT RightHandPinky1
									{
										OFFSET -0.173504 7.976997 -4.467199
										CHANNELS 3 Zrotation Yrotation Xrotation
										JOINT RightHandPinky2
										{
											OFFSET -0.000000 3.350399 -0.000000
											CHANNELS 3 Zrotation Yrotation Xrotation
											JOINT RightHandPinky3
											{
												OFFSET -0.000000 2.842763 0.000000
												CHANNELS 3 Zrotation Yrotation Xrotation
												JOINT RightHandPinky4
												{
													OFFSET 0.000000 2.639709 -0.000000
													CHANNELS 3 Zrotation Yrotation Xrotation
													End Site
													{
														OFFSET 0.000000 0.000000 0.000000
													}
												}
											}
										}
									}
									JOINT RightForeArmEnd
									{
										OFFSET 0.000000 0.000000 0.000000
										CHANNELS 3 Zrotation Yrotation Xrotation
										End Site
										{
											OFFSET 0.000000 0.000000 0.000000
										}
									}
								}
								JOINT RightArmEnd
								{
									OFFSET 0.000000 0.000000 0.000000
									CHANNELS 3 Zrotation Yrotation Xrotation
									End Site
									{
										OFFSET 0.000000 0.000000 0.000000
									}
								}
							}
						}
					}
					JOINT LeftShoulder
					{
						OFFSET 2.625389 11.175210 -0.000000
						CHANNELS 3 Zrotation Yrotation Xrotation
						JOINT LeftArm
						{
							OFFSET 0.000000 10.813635 0.000000
							CHANNELS 3 Zrotation Yrotation Xrotation
							JOINT LeftForeArm
							{
								OFFSET -0.000000 28.724781 -0.000000
								CHANNELS 3 Zrotation Yrotation Xrotation
								JOINT LeftHand
								{
									OFFSET 0.644384 25.716167 -0.328871
									CHANNELS 3 Zrotation Yrotation Xrotation
									JOINT LeftHandThumb1
									{
										OFFSET 2.867323 3.959563 2.944291
										CHANNELS 3 Zrotation Yrotation Xrotation
										JOINT LeftHandThumb2
										{
											OFFSET 0.000000 3.350399 0.000000
											CHANNELS 3 Zrotation Yrotation Xrotation
											JOINT LeftHandThumb3
											{
												OFFSET 0.000000 3.756509 0.000000
												CHANNELS 3 Zrotation Yrotation Xrotation
												JOINT LeftHandThumb4
												{
													OFFSET -0.000000 3.100000 0.000000
													CHANNELS 3 Zrotation Yrotation Xrotation
													End Site
													{
														OFFSET 0.000000 0.000000 0.000000
													}
												}
											}
										}
									}
									JOINT LeftHandIndex1
									{
										OFFSET 0.086752 10.030893 2.345280
										CHANNELS 3 Zrotation Yrotation Xrotation
										JOINT LeftHandIndex2
										{
											OFFSET -0.000000 4.061090 -0.000000
											CHANNELS 3 Zrotation Yrotation Xrotation
											JOINT LeftHandIndex3
											{
												OFFSET -0.000000 3.248873 -0.000000
												CHANNELS 3 Zrotation Yrotation Xrotation
												JOINT LeftHandIndex4
												{
													OFFSET -0.000000 2.639709 -0.000000
													CHANNELS 3 Zrotation Yrotation Xrotation
													End Site
													{
														OFFSET 0.000000 0.000000 0.000000
													}
												}
											}
										}
									}
									JOINT LeftHandMiddle1
									{
										OFFSET -0.104102 9.502952 0.006768
										CHANNELS 3 Zrotation Yrotation Xrotation
										JOINT LeftHandMiddle2
										{
											OFFSET 0.000000 4.568727 -0.000000
											CHANNELS 3 Zrotation Yrotation Xrotation
											JOINT LeftHandMiddle3
											{
												OFFSET 0.000000 3.654981 0.000000
												CHANNELS 3 Zrotation Yrotation Xrotation
												JOINT LeftHandMiddle4
												{
													OFFSET 0.000000 2.741236 0.000000
													CHANNELS 3 Zrotation Yrotation Xrotation
													End Site
													{
														OFFSET 0.000000 0.000000 0.000000
													}
												}
											}
										}
									}
									JOINT LeftHandRing1
									{
										OFFSET -0.086752 8.921708 -2.267442
										CHANNELS 3 Zrotation Yrotation Xrotation
										JOINT LeftHandRing2
										{
											OFFSET -0.000000 4.061090 -0.000000
											CHANNELS 3 Zrotation Yrotation Xrotation
											JOINT LeftHandRing3
											{
												OFFSET 0.000000 3.654981 0.000000
												CHANNELS 3 Zrotation Yrotation Xrotation
												JOINT LeftHandRing4
												{
													OFFSET -0.000000 2.741236 -0.000000
													CHANNELS 3 Zrotation Yrotation Xrotation
													End Site
													{
														OFFSET 0.000000 0.000000 0.000000
													}
												}
											}
										}
									}
									JOINT LeftHandPinky1
									{
										OFFSET 0.173504 7.976997 -4.467199
										CHANNELS 3 Zrotation Yrotation Xrotation
										JOINT LeftHandPinky2
										{
											OFFSET 0.000000 3.350399 -0.000000
											CHANNELS 3 Zrotation Yrotation Xrotation
											JOINT LeftHandPinky3
											{
												OFFSET 0.000000 2.842763 0.000000
												CHANNELS 3 Zrotation Yrotation Xrotation
												JOINT LeftHandPinky4
												{
													OFFSET -0.000000 2.639709 -0.000000
													CHANNELS 3 Zrotation Yrotation Xrotation
													End Site
													{
														OFFSET 0.000000 0.000000 0.000000
													}
												}
											}
										}
									}
									JOINT LeftForeArmEnd
									{
										OFFSET 0.000000 0.000000 0.000000
										CHANNELS 3 Zrotation Yrotation Xrotation
										End Site
										{
											OFFSET 0.000000 0.000000 0.000000
										}
									}
								}
								JOINT LeftArmEnd
								{
									OFFSET 0.000000 0.000000 0.000000
									CHANNELS 3 Zrotation Yrotation Xrotation
									End Site
									{
										OFFSET 0.000000 0.000000 0.000000
									}
								}
							}
						}
					}
				}
			}
		}
	}
	JOINT RightUpLeg
	{
		OFFSET -11.289943 0.000000 -0.000000
		CHANNELS 3 Zrotation Yrotation Xrotation
		JOINT RightLeg
		{
			OFFSET 0.000000 -38.200325 -0.000000
			CHANNELS 3 Zrotation Yrotation Xrotation
			JOINT RightFoot
			{
				OFFSET -0.000000 -39.900856 -0.000000
				CHANNELS 3 Zrotation Yrotation Xrotation
				JOINT RightToeBase
				{
					OFFSET -0.000000 0.000000 15.261641
					CHANNELS 3 Zrotation Yrotation Xrotation
					JOINT RightToeBaseEnd
					{
						OFFSET 0.000000 0.000000 7.370709
						CHANNELS 3 Zrotation Yrotation Xrotation
						End Site
						{
							OFFSET 0.000000 0.000000 0.000000
						}
					}
				}
				JOINT RightLegEnd
				{
					OFFSET 0.000000 0.000000 0.000000
					CHANNELS 3 Zrotation Yrotation Xrotation
					End Site
					{
						OFFSET 0.000000 0.000000 0.000000
					}
				}
			}
			JOINT RightUpLegEnd
			{
				OFFSET 0.000000 0.000000 0.000000
				CHANNELS 3 Zrotation Yrotation Xrotation
				End Site
				{
					OFFSET 0.000000 0.000000 0.000000
				}
			}
		}
	}
	JOINT LeftUpLeg
	{
		OFFSET 11.315661 -0.000000 -0.000000
		CHANNELS 3 Zrotation Yrotation Xrotation
		JOINT LeftLeg
		{
			OFFSET 0.000000 -38.200325 0.000000
			CHANNELS 3 Zrotation Yrotation Xrotation
			JOINT LeftFoot
			{
				OFFSET 0.000000 -39.900856 0.000000
				CHANNELS 3 Zrotation Yrotation Xrotation
				JOINT LeftToeBase
				{
					OFFSET 0.000000 -0.000000 15.261641
					CHANNELS 3 Zrotation Yrotation Xrotation
					JOINT LeftToeBaseEnd
					{
						OFFSET -0.000000 0.000000 7.539996
						CHANNELS 3 Zrotation Yrotation Xrotation
						End Site
						{
							OFFSET 0.000000 0.000000 0.000000
						}
					}
				}
				JOINT LeftLegEnd
				{
					OFFSET 0.000000 0.000000 0.000000
					CHANNELS 3 Zrotation Yrotation Xrotation
					End Site
					{
						OFFSET 0.000000 0.000000 0.000000
					}
				}
			}
			JOINT LeftUpLegEnd
			{
				OFFSET 0.000000 0.000000 0.000000
				CHANNELS 3 Zrotation Yrotation Xrotation
				End Site
				{
					OFFSET 0.000000 0.000000 0.000000
				}
			}
		}
	}
}
MOTION
Frames: 4
Frame Time: 0.016667
7.425521 87.779633 11.637542 -1.457197 -3.626606 -14.304323 4.135197 -0.504501 8.361272 0.583352 -0.076654 4.064177 -0.536052 -1.381640 5.012659 -1.361896 -0.450552 4.571581 -0.965243 0.606117 6.280718 -0.841168 0.414756 -3.258843 -0.929204 -0.869758 -21.402889 0.000000 0.000000 0.000000 86.593529 0.823242 11.094987 50.872971 -5.427212 12.783531 -0.933908 14.019843 96.256447 12.755640 43.860260 11.122519 9.214967 -1.690765 40.589699 -0.000007 0.000014 -22.260057 0.000004 0.000036 -15.365891 -0.000003 0.000001 -0.000013 6.048941 0.096418 -1.580008 5.483520 -0.008597 -0.057727 5.350444 0.000381 -0.042583 -0.000028 0.000029 -0.000009 6.663213 0.018231 -4.297789 5.167305 -0.016534 -0.014504 5.539019 0.001240 -0.016201 -0.000004 0.000045 -0.000006 9.688879 -0.037014 -8.411123 6.326687 0.041712 0.034803 6.459542 0.012150 0.023748 0.000021 0.000995 -0.000010 11.975672 0.015326 -13.393105 7.369362 0.124332 0.173321 7.696982 0.014271 0.128814 0.000101 0.000008 -0.000002 0.000000 0.000000 0.000000 0.000000 0.000000 0.000000 -84.914146 -1.157878 8.017562 -65.241249 -0.587881 3.116081 0.236968 -15.744001 98.512817 -48.815453 -46.769196 27.828798 -7.667621 1.469675 41.240364 -0.000010 0.000010 -18.497717 -0.000131 -0.000018 -12.954302 0.000799 0.000017 0.000440 -0.411158 0.051479 1.824139 -1.725069 -0.070419 -0.173895 -1.984270 -0.042405 -0.147495 0.000023 -0.000149 -0.000025 -3.453662 0.013262 -2.927021 -2.583544 -0.039325 -0.067392 -2.256853 -0.009339 -0.058437 0.000018 0.000004 -0.000043 -11.977490 -0.024394 -9.255249 -6.201787 0.058161 0.050408 -5.918112 0.016174 0.044517 0.000113 0.000021 -0.000002 -18.436153 -0.082285 -15.877413 -10.474893 0.099309 0.070967 -10.315254 0.032454 0.080129 0.000494 0.000015 -0.000037 0.000000 0.000000 0.000000 0.000000 0.000000 0.000000 -0.104200 -17.096590 18.850174 -0.049525 -0.495519 4.762448 -3.482348 -11.170609 15.554476 -0.663292 0.987163 -16.334471 0.000000 0.000000 0.000000 0.000000 0.000000 0.000000 0.000000 0.000000 0.000000 12.944512 -3.679184 9.901474 0.429756 1.604496 13.742588 -6.884486 -1.833465 18.058800 1.231152 -1.340352 -21.277456 0.000000 0.000000 0.000000 0.000000 0.000000 0.000000 0.000000 0.000000 0.000000 
7.460725 87.805984 11.654259 -1.435770 -3.464246 -14.318655 4.169474 -0.508594 8.381816 0.609945 -0.085265 4.015434 -0.593811 -1.292867 5.086288 -1.394568 -0.431048 4.532674 -1.104672 0.617422 6.276621 -0.862545 0.346728 -3.257094 -0.914297 -0.866322 -21.344707 0.000000 0.000000 0.000000 86.667671 0.807141 11.213018 50.974113 -6.656328 13.066856 -0.979867 13.774673 96.551201 13.049054 43.740204 11.171433 9.217575 -1.696216 40.578770 -0.000007 0.000014 -22.286892 0.000004 0.000036 -15.389252 -0.000003 0.000000 -0.000013 6.057936 0.096750 -1.752107 5.396558 -0.014133 -0.047501 5.271724 -0.004204 -0.033010 -0.000028 0.000028 -0.000009 6.711523 0.017729 -4.449068 5.098413 -0.018267 -0.010883 5.472340 0.000092 -0.013393 -0.000004 0.000048 -0.000007 9.836360 -0.036390 -8.542373 6.313282 0.043716 0.034659 6.436270 0.013152 0.023203 0.000022 0.000915 -0.000010 12.189580 0.018350 -13.517509 7.409091 0.127574 0.182840 7.725009 0.015777 0.137765 0.000047 0.000008 -0.000002 0.000000 0.000000 0.000000 0.000000 0.000000 0.000000 -84.928497 -1.154319 8.023380 -65.432884 -0.718168 3.187530 0.189560 -15.844556 97.935135 -48.399555 -47.381725 27.793615 -7.596667 1.462493 41.273060 -0.000010 0.000010 -18.312265 -0.000128 -0.000017 -12.823357 0.000838 0.000017 0.000359 0.005033 0.050083 1.876563 -1.510553 -0.073898 -0.184669 -1.772009 -0.045106 -0.156746 0.000023 -0.000095 -0.000025 -3.065194 0.013220 -2.873672 -2.386285 -0.040888 -0.071413 -2.055179 -0.010194 -0.062149 -0.000051 0.000004 -0.000042 -11.625389 -0.023969 -9.207318 -6.006566 0.060812 0.054749 -5.720489 0.017393 0.047158 0.000082 0.000021 -0.000002 -18.137140 -0.083048 -15.855000 -10.311810 0.103456 0.072298 -10.148540 0.034756 0.083475 0.000531 0.000015 -0.000037 0.000000 0.000000 0.000000 0.000000 0.000000 0.000000 -0.196399 -17.170635 18.930624 -0.049617 -0.503328 4.699720 -3.412879 -11.240796 15.526235 -0.672343 0.995385 -16.325512 0.000000 0.000000 0.000000 0.000000 0.000000 0.000000 0.000000 0.000000 0.000000 12.883456 -3.802468 9.853235 0.429109 1.608835 13.662600 -6.850934 -1.946148 18.140116 1.228832 -1.350104 -21.326286 0.000000 0.000000 0.000000 0.000000 0.000000 0.000000 0.000000 0.000000 0.000000 
7.505159 87.830307 11.673784 -1.415051 -3.284850 -14.332870 4.196834 -0.510923 8.401171 0.636799 -0.092578 3.967329 -0.657607 -1.203074 5.167838 -1.426114 -0.414748 4.502897 -1.229089 0.606611 6.272591 -0.881652 0.260571 -3.254220 -0.892919 -0.863046 -21.288843 0.000000 0.000000 0.000000 86.748512 0.788848 11.320975 51.097027 -7.867539 13.320744 -1.023020 13.553420 96.782722 13.149162 43.633598 11.122350 9.211054 -1.700705 40.571812 -0.000007 0.000014 -22.293173 0.000004 0.000036 -15.396654 -0.000003 0.000000 -0.000013 6.036007 0.097061 -1.886484 5.297025 -0.020155 -0.035621 5.181270 -0.009113 -0.022123 -0.000027 0.000027 -0.000009 6.726835 0.017148 -4.569327 5.014533 -0.020124 -0.006688 5.391576 -0.001209 -0.009972 -0.000004 0.000052 -0.000007 9.932621 -0.035968 -8.649317 6.279009 0.046162 0.032749 6.391066 0.014523 0.021523 0.000023 0.000837 -0.000009 12.340549 0.020752 -13.625703 7.422413 0.132544 0.186813 7.728607 0.018716 0.141665 -0.000012 0.000007 -0.000003 0.000000 0.000000 0.000000 0.000000 0.000000 0.000000 -84.948906 -1.146356 8.028069 -65.575089 -0.747099 3.267106 0.153842 -15.933220 97.383499 -47.837105 -47.861057 27.624758 -7.525543 1.455057 41.305882 -0.000009 0.000010 -18.129820 -0.000125 -0.000017 -12.693335 0.000869 0.000017 0.000244 0.406073 0.048695 1.920279 -1.305472 -0.077306 -0.195575 -1.571274 -0.047807 -0.165948 0.000023 -0.000035 -0.000025 -2.685426 0.013136 -2.823508 -2.197324 -0.042387 -0.075470 -1.860979 -0.011077 -0.065759 -0.000107 0.000004 -0.000040 -11.259809 -0.023602 -9.160007 -5.809773 0.063464 0.059418 -5.522234 0.018627 0.049999 0.000073 0.000021 -0.000002 -17.803988 -0.084053 -15.830072 -10.135104 0.107772 0.075633 -9.968438 0.037230 0.087940 0.000572 0.000015 -0.000037 0.000000 0.000000 0.000000 0.000000 0.000000 0.000000 -0.294426 -17.250534 19.013838 -0.049513 -0.510713 4.642349 -3.330282 -11.338428 15.499268 -0.680897 1.003996 -16.320669 0.000000 0.000000 0.000000 0.000000 0.000000 0.000000 0.000000 0.000000 0.000000 12.816882 -3.936865 9.792595 0.428092 1.612899 13.591180 -6.816575 -2.068405 18.216730 1.225643 -1.360890 -21.374214 0.000000 0.000000 0.000000 0.000000 0.000000 0.000000 0.000000 0.000000 0.000000 
7.559980 87.851738 11.695926 -1.394013 -3.086687 -14.346590 4.216093 -0.512121 8.418089 0.661931 -0.098558 3.919728 -0.722985 -1.115954 5.253872 -1.455625 -0.402678 4.482280 -1.337750 0.574061 6.258904 -0.898173 0.159853 -3.253534 -0.866495 -0.860480 -21.232956 0.000000 0.000000 0.000000 86.832207 0.768806 11.417913 51.215336 -9.045520 13.551692 -1.062016 13.355284 96.960526 13.071217 43.546997 10.976535 9.199282 -1.704296 40.567554 -0.000006 0.000014 -22.287035 0.000005 0.000036 -15.394033 -0.000002 -0.000000 -0.000013 5.989585 0.097235 -1.992752 5.189950 -0.026282 -0.022750 5.083662 -0.014061 -0.010431 -0.000027 0.000026 -0.000008 6.715781 0.016479 -4.664985 4.920533 -0.022005 -0.002030 5.301178 -0.002573 -0.006077 -0.000004 0.000055 -0.000007 9.984744 -0.035706 -8.733658 6.228957 0.048873 0.029200 6.329075 0.016172 0.018800 0.000023 0.000758 -0.000009 12.431543 0.022472 -13.714812 7.412010 0.138821 0.184896 7.710693 0.022791 0.140322 -0.000070 0.000007 -0.000003 0.000000 0.000000 0.000000 0.000000 0.000000 0.000000 -84.970795 -1.133602 8.030457 -65.668892 -0.684103 3.356106 0.128334 -16.009583 96.860512 -47.134434 -48.192978 27.313011 -7.451288 1.446783 41.340256 -0.000009 0.000010 -17.943205 -0.000123 -0.000016 -12.559828 0.000890 0.000018 0.000102 0.814195 0.047360 1.957458 -1.103011 -0.080620 -0.207317 -1.374794 -0.050524 -0.175774 0.000023 0.000027 -0.000026 -2.293730 0.013015 -2.776381 -2.008331 -0.043816 -0.079869 -1.666704 -0.012020 -0.069560 -0.000151 0.000004 -0.000039 -10.863307 -0.023297 -9.115678 -5.601882 0.066090 0.064892 -5.313391 0.019906 0.053422 0.000084 0.000020 -0.000002 -17.422844 -0.085418 -15.806804 -9.935381 0.112297 0.082906 -9.766595 0.039973 0.095007 0.000614 0.000015 -0.000037 0.000000 0.000000 0.000000 0.000000 0.000000 0.000000 -0.399026 -17.337486 19.097366 -0.049311 -0.517656 4.592730 -3.235436 -11.463995 15.475787 -0.689638 1.012368 -16.319016 0.000000 0.000000 0.000000 0.000000 0.000000 0.000000 0.000000 0.000000 0.000000 12.742138 -4.078585 9.716844 0.426723 1.616213 13.532812 -6.777206 -2.200610 18.288567 1.220721 -1.371714 -21.418720 0.000000 0.000000 0.000000 0.000000 0.000000 0.000000 0.000000 0.000000 0.000000 
